<svg width="32" height="32" viewBox="0 0 32 32" fill="none" xmlns="http://www.w3.org/2000/svg">
  <path d="M8 12C8 10.8954 8.89543 10 10 10H14L8 16L14 22H10C8.89543 22 8 21.1046 8 20V12Z" stroke="currentColor" stroke-width="2" stroke-linecap="round" stroke-linejoin="round"/>
  <path d="M24 8C25.1046 8 26 8.89543 26 10V12H20C18.8954 12 18 12.8954 18 14C18 15.1046 18.8954 16 20 16H26V18C26 19.1046 25.1046 20 24 20C22.8954 20 22 19.1046 22 18V10C22 8.89543 22.8954 8 24 8Z" stroke="currentColor" stroke-width="2" stroke-linecap="round" stroke-linejoin="round"/>
</svg>